<svg width="89" height="20" viewBox="0 0 89 20" fill="none" xmlns="http://www.w3.org/2000/svg">
<g clip-path="url(#clip0_4041_6519)">
<path d="M5.65185 7.77191V10.5003H12.1004V14.5421H5.65185V19.6289H0.441406V3.73735H13.0069V7.77191H5.65185Z" fill="#FA541C"/>
<path d="M19.484 7.20576H14.4946V19.6287H19.484V7.20576Z" fill="#FA541C"/>
<path d="M19.9942 3.50548C19.9942 4.29643 19.7215 4.94225 19.1761 5.45745C18.6308 5.95814 17.9085 6.21212 16.9947 6.21212C16.0808 6.21212 15.3512 5.95814 14.8058 5.45745C14.2605 4.96402 13.9878 4.33996 13.9878 3.59981C13.9878 2.85966 14.2605 2.23561 14.8058 1.73491C15.3512 1.23422 16.0808 0.987503 16.9947 0.987503C17.9085 0.987503 18.6308 1.21971 19.1761 1.69137C19.7215 2.16304 19.9942 2.76532 19.9942 3.50548Z" fill="#FA541C"/>
<path d="M30.5985 19.1935C30.2152 19.4257 29.7509 19.5926 29.2056 19.6942C28.6749 19.803 28.1148 19.8538 27.5253 19.8538C25.8671 19.8538 24.57 19.4474 23.6414 18.6275C22.7128 17.793 22.2485 16.5231 22.2485 14.8106V11.6323H20.5977V7.88798H22.2485V4.41216H27.2378V7.88798H29.7141V11.6323H27.2378V14.7671C27.2378 15.1444 27.3336 15.4419 27.5253 15.6523C27.7316 15.8628 27.9822 15.9716 28.277 15.9716C28.7044 15.9716 29.0803 15.8555 29.4046 15.6306L30.5985 19.1935Z" fill="#FA541C"/>
<path d="M32.0071 19.6289V3.73735H37.2175V15.4782H44.1967V19.6361H32.0071V19.6289Z" fill="#FA541C"/>
<path d="M55.9211 8.41081C54.7862 7.46022 53.187 6.98129 51.1087 6.98129C50.1653 6.98129 49.1999 7.10465 48.2123 7.34411C47.2322 7.58357 46.3846 7.93188 45.6771 8.38904L47.269 11.7705C47.667 11.4658 48.1387 11.2335 48.6988 11.0667C49.2589 10.8852 49.8116 10.7982 50.357 10.7982C51.1676 10.7982 51.7498 10.9578 52.1036 11.2698C52.3836 11.5165 52.5605 11.8431 52.6195 12.2494H50.6223C49.3694 12.2494 48.3303 12.3946 47.5122 12.6776C46.7015 12.9678 46.0972 13.3887 45.6992 13.9547C45.3013 14.5134 45.1023 15.1955 45.1023 15.9938C45.1023 16.7049 45.2718 17.358 45.6108 17.9457C45.9498 18.519 46.451 18.9834 47.1143 19.3317C47.7775 19.68 48.5956 19.8542 49.5831 19.8542C50.6296 19.8542 51.4624 19.6292 52.0815 19.1721C52.4795 18.8818 52.789 18.4972 53.0101 18.011V19.6292H57.6457V12.9533C57.6457 10.878 57.0708 9.36865 55.9211 8.41081ZM52.0152 16.4944C51.7351 16.6759 51.4256 16.7629 51.0866 16.7629C50.7181 16.7629 50.4233 16.6759 50.2022 16.4944C49.9958 16.2985 49.8927 16.0518 49.8927 15.7688C49.8927 15.4205 50.0106 15.1593 50.2464 14.9924C50.497 14.811 50.8876 14.7239 51.4182 14.7239H52.6563V15.5874C52.5237 15.9938 52.31 16.2985 52.0152 16.4944Z" fill="#FA541C"/>
<path d="M66.9172 11.3129C66.8361 11.2984 66.755 11.2911 66.6666 11.2911C66.3276 11.2911 66.0107 11.3782 65.7159 11.5451C65.6569 11.5741 65.598 11.6176 65.5464 11.6539C65.6717 11.3201 65.9812 11.0807 66.3423 11.0807C66.5634 11.0807 66.7698 11.1677 66.9172 11.3129Z" fill="#FA541C"/>
<path d="M72.4119 9.36858C71.9844 8.5486 71.3948 7.94632 70.6431 7.56899C69.8988 7.17714 69.0586 6.98122 68.13 6.98122C67.1425 6.98122 66.2434 7.21342 65.4327 7.68509C65.0863 7.88827 64.7694 8.14224 64.4894 8.43976V7.20616H59.7358V19.6291H64.7326C64.6125 19.6291 65.0604 19.6291 65.2225 19.6291H67.3802C67.6455 19.6291 68.1648 19.6291 68.0858 19.6291H73.0752V12.5469C73.0752 11.2407 72.8541 10.1813 72.4119 9.36858ZM68.8302 17.9674C68.8302 18.011 68.8302 18.0545 68.8228 18.098H63.7376C63.7376 18.0545 63.7376 18.011 63.7376 17.9674V12.3219C63.7376 11.9228 63.9071 11.5455 64.2019 11.2698L65.2779 10.2684C65.8454 9.73865 66.7371 9.73865 67.3046 10.2684L68.3806 11.2698C68.6754 11.5455 68.8375 11.9228 68.8375 12.3219V17.9674H68.8302Z" fill="#FA541C"/>
<path d="M83.8895 2.77928V8.0692C83.7421 7.92408 83.5874 7.79346 83.4252 7.68461C82.7472 7.21295 81.8776 6.98074 80.8163 6.98074C79.7551 6.98074 78.8044 7.23472 77.9053 7.74992C77.0209 8.26513 76.3134 9.01254 75.7828 9.97764C75.2521 10.9282 74.9868 12.0747 74.9868 13.4027C74.9868 14.7306 75.2521 15.8916 75.7828 16.8567C76.3134 17.8073 77.0209 18.5547 77.9053 19.0844C78.8044 19.5996 79.7772 19.8536 80.8163 19.8536C81.9365 19.8536 82.8283 19.6287 83.4916 19.1715C83.7274 19.0119 83.9411 18.8232 84.1327 18.6055V19.6287H88.8789V2.77928H83.8895ZM83.7126 14.7669C83.5358 15.1297 83.2999 15.4054 83.0051 15.5868C82.7104 15.7683 82.3787 15.8553 82.0102 15.8553C81.6417 15.8553 81.3101 15.7683 81.0153 15.5868C80.7205 15.4054 80.4847 15.1297 80.3152 14.7669C80.1383 14.3895 80.0499 13.9324 80.0499 13.4027C80.0499 12.8729 80.1383 12.4158 80.3152 12.0675C80.4847 11.7047 80.7205 11.4289 81.0153 11.2475C81.3101 11.0661 81.6417 10.979 82.0102 10.979C82.3787 10.979 82.7104 11.0661 83.0051 11.2475C83.2999 11.4289 83.5358 11.7047 83.7126 12.0675C83.8895 12.4158 83.978 12.8584 83.978 13.4027C83.978 13.9469 83.8895 14.3895 83.7126 14.7669Z" fill="#FA541C"/>
<path d="M66.9158 11.3129C66.7684 11.1677 66.562 11.0807 66.3409 11.0807C65.9798 11.0807 65.6703 11.3201 65.545 11.6539C65.5155 11.7482 65.4934 11.8498 65.4934 11.9587C65.4934 12.4376 65.8766 12.8367 66.3409 12.8367C66.8052 12.8367 67.1958 12.4376 67.1958 11.9587C67.1958 11.7047 67.0853 11.4725 66.9158 11.3129Z" fill="#EDEDEE" stroke="#FA541C" stroke-width="0.589583"/>
<path d="M67.1958 11.9587C67.1958 12.4376 66.8126 12.8367 66.3409 12.8367C65.8693 12.8367 65.4934 12.4376 65.4934 11.9587C65.4934 11.8498 65.5155 11.7482 65.545 11.6539C65.6703 11.3201 65.9798 11.0807 66.3409 11.0807C66.562 11.0807 66.7684 11.1677 66.9158 11.3129C67.0853 11.4725 67.1958 11.7047 67.1958 11.9587Z" fill="#FA541C"/>
</g>
<defs>
<clipPath id="clip0_4041_6519">
<rect width="88.4375" height="18.8667" fill="white" transform="translate(0.441406 0.987503)"/>
</clipPath>
</defs>
</svg>
