<svg width="12" height="11" viewBox="0 0 12 11" fill="none" xmlns="http://www.w3.org/2000/svg">
<g filter="url(#filter0_d_4041_6536)">
<path d="M5.92287 10.2075C5.65756 10.2075 5.39667 10.1456 5.18442 10.0262L3.09287 8.81902C2.22619 8.23533 2.1687 8.12921 2.1687 7.21388V5.02063C2.1687 4.1053 2.22619 3.99918 3.07519 3.42876L5.18884 2.20832C5.60892 1.96512 6.24125 1.96512 6.66133 2.20832L8.75287 3.41549C9.61956 3.99918 9.67705 4.1053 9.67705 5.02063V7.21388C9.67705 8.12921 9.61956 8.23533 8.77056 8.80576L6.6569 10.0262C6.44908 10.15 6.18376 10.2075 5.92287 10.2075ZM5.92287 2.6903C5.77253 2.6903 5.62219 2.72126 5.51606 2.78316L3.42451 3.99033C2.83198 4.39273 2.83198 4.39273 2.83198 5.02063V7.21388C2.83198 7.84179 2.83198 7.84179 3.44662 8.25744L5.52048 9.45135C5.73273 9.57516 6.11744 9.57516 6.32969 9.45135L8.42123 8.24418C9.01376 7.84179 9.01376 7.84179 9.01376 7.21388V5.02063C9.01376 4.39273 9.01376 4.39273 8.39912 3.97707L6.32526 2.78316C6.22356 2.72126 6.07322 2.6903 5.92287 2.6903Z" fill="#FA541C"/>
<path d="M8.35488 3.85345C8.17359 3.85345 8.02324 3.70311 8.02324 3.52181V2.35886C8.02324 1.6602 7.72698 1.36393 7.02832 1.36393H4.81738C4.11873 1.36393 3.82246 1.6602 3.82246 2.35886V3.49086C3.82246 3.67215 3.67212 3.8225 3.49082 3.8225C3.30952 3.8225 3.15918 3.67657 3.15918 3.49086V2.35886C3.15918 1.28876 3.74729 0.700653 4.81738 0.700653H7.02832C8.09841 0.700653 8.68652 1.28876 8.68652 2.35886V3.52181C8.68652 3.70311 8.53618 3.85345 8.35488 3.85345Z" fill="#FA541C"/>
<path d="M6.64369 7.94368C6.55083 7.94368 6.45355 7.92599 6.35627 7.8862L5.92292 7.71817L5.48958 7.89062C5.25522 7.98348 5.01644 7.96137 4.83956 7.83313C4.66269 7.7049 4.56983 7.48381 4.5831 7.23176L4.60963 6.76746L4.31336 6.40929C4.15417 6.21031 4.10111 5.98037 4.17186 5.76812C4.23819 5.56029 4.41949 5.4011 4.66269 5.3392L5.11372 5.22423L5.36577 4.83068C5.6355 4.40618 6.21477 4.40618 6.4845 4.83068L6.73655 5.22423L7.18758 5.3392C7.43078 5.4011 7.61208 5.56029 7.67841 5.76812C7.74474 5.97595 7.69167 6.21031 7.53249 6.40487L7.23622 6.76304L7.26275 7.22734C7.27602 7.47938 7.18316 7.69606 7.00628 7.82871C6.90016 7.90388 6.77635 7.94368 6.64369 7.94368ZM4.8263 5.98479L5.12256 6.34296C5.22427 6.46235 5.28175 6.65249 5.27291 6.80726L5.24638 7.27156L5.67972 7.0991C5.82564 7.04162 6.0202 7.04162 6.16613 7.0991L6.59947 7.27156L6.57294 6.80726C6.5641 6.65249 6.62158 6.46677 6.72328 6.34296L7.01955 5.98479L6.56852 5.86982C6.41817 5.83002 6.25899 5.71506 6.17497 5.58682L5.92735 5.1977L5.6753 5.58682C5.59128 5.71948 5.4321 5.83445 5.28175 5.87424L4.8263 5.98479Z" fill="#FA541C"/>
</g>
<defs>
<filter id="filter0_d_4041_6536" x="0.0271159" y="-0.441665" width="11.7917" height="11.7917" filterUnits="userSpaceOnUse" color-interpolation-filters="sRGB">
<feFlood flood-opacity="0" result="BackgroundImageFix"/>
<feColorMatrix in="SourceAlpha" type="matrix" values="0 0 0 0 0 0 0 0 0 0 0 0 0 0 0 0 0 0 127 0" result="hardAlpha"/>
<feOffset/>
<feGaussianBlur stdDeviation="0.294792"/>
<feComposite in2="hardAlpha" operator="out"/>
<feColorMatrix type="matrix" values="0 0 0 0 0.980392 0 0 0 0 0.329412 0 0 0 0 0.109804 0 0 0 1 0"/>
<feBlend mode="normal" in2="BackgroundImageFix" result="effect1_dropShadow_4041_6536"/>
<feBlend mode="normal" in="SourceGraphic" in2="effect1_dropShadow_4041_6536" result="shape"/>
</filter>
</defs>
</svg>
