<svg width="9" height="11" viewBox="0 0 9 11" fill="none" xmlns="http://www.w3.org/2000/svg">
<path d="M3.58842 10.2075C3.49998 10.2075 3.42923 10.1898 3.37617 10.1677C3.1993 10.1014 2.89861 9.88473 2.89861 9.19934V6.34723H1.86389C1.27136 6.34723 1.05911 6.06865 0.983937 5.90504C0.908766 5.73701 0.842437 5.39652 1.23156 4.94992L4.57892 1.1471C5.02995 0.634166 5.39697 0.669541 5.57384 0.735869C5.75072 0.802197 6.05141 1.01887 6.05141 1.70426V4.55637H7.08613C7.67866 4.55637 7.89091 4.83495 7.96608 4.99856C8.04125 5.16659 8.10758 5.50707 7.71845 5.95368L4.37109 9.75649C4.05714 10.1147 3.78298 10.2075 3.58842 10.2075ZM5.33064 1.35935C5.31738 1.37704 5.22452 1.42126 5.07859 1.58929L1.73123 5.3921C1.60742 5.5336 1.58973 5.62204 1.58973 5.63973C1.59858 5.64415 1.67817 5.68837 1.86389 5.68837H3.23025C3.41155 5.68837 3.56189 5.83871 3.56189 6.02001V9.20376C3.56189 9.42485 3.60169 9.52213 3.61938 9.54866C3.63264 9.53098 3.7255 9.48676 3.87142 9.31873L7.21878 5.51592C7.34259 5.37442 7.36028 5.28598 7.36028 5.26829C7.35144 5.26387 7.27184 5.21965 7.08613 5.21965H5.71977C5.53847 5.21965 5.38813 5.06931 5.38813 4.88801V1.70426C5.39255 1.48317 5.34833 1.39031 5.33064 1.35935Z" fill="#FA541C"/>
</svg>
