<svg width="10" height="11" viewBox="0 0 10 11" fill="none" xmlns="http://www.w3.org/2000/svg">
<path d="M7.53418 10.1724C7.29982 10.1724 6.99913 10.0973 6.62327 9.87618L5.30113 9.09351C5.16406 9.01391 4.89874 9.01391 4.76609 9.09351L3.43952 9.87618C2.65685 10.3405 2.19698 10.1548 1.98915 10.0044C1.78574 9.85407 1.46737 9.46937 1.6752 8.58499L1.98915 7.22748C2.02452 7.08598 1.95377 6.84277 1.84765 6.73665L0.751025 5.64002C0.202712 5.09171 0.246931 4.62299 0.322103 4.39306C0.397275 4.16312 0.636056 3.75631 1.39662 3.62807L2.8072 3.39371C2.93985 3.3716 3.12999 3.2301 3.18748 3.11071L3.97015 1.54979C4.3239 0.837868 4.7882 0.731743 5.0314 0.731743C5.2746 0.731743 5.7389 0.837868 6.09265 1.54979L6.8709 3.10629C6.93281 3.22568 7.12295 3.36718 7.2556 3.38929L8.66618 3.62365C9.43117 3.75188 9.66995 4.1587 9.7407 4.38863C9.81145 4.61857 9.85567 5.08729 9.31177 5.6356L8.21515 6.73665C8.10903 6.84277 8.0427 7.08156 8.07365 7.22748L8.3876 8.58499C8.59101 9.46937 8.27706 9.85407 8.07365 10.0044C7.9631 10.084 7.78623 10.1724 7.53418 10.1724ZM5.0314 8.36832C5.24807 8.36832 5.46474 8.42138 5.6372 8.52309L6.95934 9.30576C7.34404 9.5357 7.58724 9.5357 7.6801 9.46937C7.77296 9.40304 7.83929 9.16868 7.74201 8.73534L7.42806 7.37782C7.34404 7.01081 7.48112 6.53767 7.74643 6.26793L8.84306 5.17131C9.05973 4.95463 9.15701 4.74238 9.11279 4.59646C9.06415 4.45054 8.86074 4.33115 8.56006 4.28251L7.14948 4.04815C6.80899 3.99066 6.43756 3.71651 6.28279 3.40698L5.50454 1.85048C5.36304 1.56748 5.18617 1.39945 5.0314 1.39945C4.87663 1.39945 4.69976 1.56748 4.56268 1.85048L3.78001 3.40698C3.62524 3.71651 3.25381 3.99066 2.91332 4.04815L1.50717 4.28251C1.20648 4.33115 1.00307 4.45054 0.954431 4.59646C0.90579 4.74238 1.00749 4.95906 1.22417 5.17131L2.32079 6.26793C2.5861 6.53324 2.72318 7.01081 2.63917 7.37782L2.32521 8.73534C2.22351 9.1731 2.29426 9.40304 2.38712 9.46937C2.47998 9.5357 2.71876 9.53127 3.10788 9.30576L4.43002 8.52309C4.59806 8.42138 4.81473 8.36832 5.0314 8.36832Z" fill="#FA541C"/>
</svg>
